<svg width="40" height="40" viewBox="0 0 40 40" fill="none" xmlns="http://www.w3.org/2000/svg">
<path fill-rule="evenodd" clip-rule="evenodd" d="M17.123 21.5895L7.78641 18.4773C5.4332 17.6929 4.25659 17.3007 4.25659 16.5799C4.25659 15.8591 5.4332 15.4669 7.78641 14.6825L30.4769 7.11904C32.1327 6.56711 32.9606 6.29115 33.3976 6.72816C33.8346 7.16518 33.5586 7.99307 33.0067 9.64886L25.4432 32.3393C24.6588 34.6925 24.2666 35.8692 23.5458 35.8692C22.8251 35.8692 22.4329 34.6925 21.6485 32.3393L18.5367 23.0041L26.0415 15.4994C26.432 15.1089 26.432 14.4757 26.0415 14.0852C25.6509 13.6947 25.0178 13.6947 24.6272 14.0852L17.123 21.5895Z" fill="currentcolor"/>
</svg>
