<svg
            width="18"
            height="15"
            viewBox="0 0 18 15"
            fill="none"
            xmlns="http://www.w3.org/2000/svg">
            <path
                d="M5.6608 14.6287C12.4536 14.6287 16.1683 9.00121 16.1683 4.12122C16.1683 3.9614 16.1651 3.8023 16.1579 3.64386C16.8806 3.12089 17.5044 2.47333 18 1.73154C17.3383 2.0257 16.6262 2.22369 15.8793 2.31297C16.6417 1.85573 17.227 1.13254 17.5032 0.270359C16.7782 0.700436 15.9852 1.0036 15.1582 1.16678C14.4842 0.448967 13.5249 0 12.4625 0C10.4231 0 8.76927 1.65386 8.76927 3.69249C8.76927 3.9823 8.8017 4.26419 8.86506 4.53455C5.79574 4.3801 3.07409 2.91058 1.25261 0.676078C0.924554 1.23962 0.751987 1.88015 0.752547 2.53223C0.752547 3.81347 1.40452 4.94456 2.39596 5.60626C1.80952 5.58837 1.23594 5.42997 0.723433 5.14437C0.72289 5.15989 0.72289 5.17499 0.72289 5.19154C0.72289 6.98004 1.99586 8.4733 3.68566 8.81167C3.36829 8.89812 3.0408 8.94183 2.71186 8.94165C2.47891 8.94149 2.24651 8.91918 2.01778 8.87503C2.48795 10.3424 3.85128 11.4102 5.46764 11.44C4.20367 12.4307 2.61141 13.0208 0.880901 13.0208C0.58318 13.0208 0.289083 13.0039 0 12.9697C1.63441 14.0173 3.57513 14.6285 5.66098 14.6285"
                fill="currentColor"
            />
        </svg>